<svg width="13" height="18" viewBox="0 0 13 18" fill="none" xmlns="http://www.w3.org/2000/svg">
<path d="M12.625 1.5V12.75C12.625 12.9158 12.5592 13.0747 12.4419 13.1919C12.3247 13.3092 12.1658 13.375 12 13.375H2.2586L4.94219 16.0578C5.00026 16.1159 5.04632 16.1848 5.07775 16.2607C5.10918 16.3366 5.12535 16.4179 5.12535 16.5C5.12535 16.5821 5.10918 16.6634 5.07775 16.7393C5.04632 16.8152 5.00026 16.8841 4.94219 16.9422C4.88412 17.0003 4.81518 17.0463 4.73931 17.0777C4.66344 17.1092 4.58212 17.1253 4.5 17.1253C4.41788 17.1253 4.33656 17.1092 4.26069 17.0777C4.18482 17.0463 4.11588 17.0003 4.05782 16.9422L0.307816 13.1922C0.249706 13.1341 0.203606 13.0652 0.172154 12.9893C0.140701 12.9135 0.124512 12.8321 0.124512 12.75C0.124512 12.6679 0.140701 12.5865 0.172154 12.5107C0.203606 12.4348 0.249706 12.3659 0.307816 12.3078L4.05782 8.55781C4.17509 8.44054 4.33415 8.37465 4.5 8.37465C4.66586 8.37465 4.82492 8.44054 4.94219 8.55781C5.05947 8.67509 5.12535 8.83415 5.12535 9C5.12535 9.16585 5.05947 9.32491 4.94219 9.44219L2.2586 12.125H11.375V1.5C11.375 1.33424 11.4408 1.17527 11.5581 1.05806C11.6753 0.940848 11.8342 0.875 12 0.875C12.1658 0.875 12.3247 0.940848 12.4419 1.05806C12.5592 1.17527 12.625 1.33424 12.625 1.5Z" fill="white"/>
</svg>
