<svg width="44" height="51" viewBox="0 0 44 51" fill="none" xmlns="http://www.w3.org/2000/svg">
<g filter="url(#filter0_ddddd_4108_6)">
<path d="M37.8377 11.0819H31.5238C31.594 11.0225 31.666 10.9649 31.7344 10.9019C32.281 10.4162 32.7216 9.82302 33.0285 9.15934C33.3354 8.49566 33.502 7.77579 33.518 7.04475C33.5417 6.24502 33.4016 5.4489 33.1065 4.70525C32.8113 3.96161 32.3672 3.28614 31.8016 2.72031C31.2359 2.15448 30.5606 1.71024 29.817 1.41485C29.0735 1.11947 28.2774 0.979169 27.4777 1.00257C26.7463 1.01833 26.0261 1.18487 25.3621 1.49179C24.6981 1.79871 24.1046 2.23939 23.6187 2.78625C22.9464 3.5654 22.3999 4.44473 21.9988 5.39247C21.5978 4.44473 21.0512 3.5654 20.379 2.78625C19.8931 2.23939 19.2996 1.79871 18.6356 1.49179C17.9716 1.18487 17.2514 1.01833 16.52 1.00257C15.7203 0.979169 14.9242 1.11947 14.1806 1.41485C13.4371 1.71024 12.7618 2.15448 12.1961 2.72031C11.6304 3.28614 11.1864 3.96161 10.8912 4.70525C10.5961 5.4489 10.456 6.24502 10.4796 7.04475C10.4956 7.77579 10.6623 8.49566 10.9692 9.15934C11.2761 9.82302 11.7167 10.4162 12.2633 10.9019C12.3317 10.9613 12.4037 11.0189 12.4739 11.0819H6.15995C5.39618 11.0819 4.66369 11.3853 4.12362 11.9253C3.58356 12.4654 3.28015 13.1979 3.28015 13.9617V19.7213C3.28015 20.485 3.58356 21.2175 4.12362 21.7576C4.66369 22.2977 5.39618 22.6011 6.15995 22.6011V34.1203C6.15995 34.884 6.46336 35.6165 7.00342 36.1566C7.54349 36.6967 8.27598 37.0001 9.03975 37.0001H19.839C20.0299 37.0001 20.2131 36.9242 20.3481 36.7892C20.4831 36.6542 20.5589 36.471 20.5589 36.2801V19.7213H6.15995V13.9617H20.5589V19.7213H23.4387V13.9617H37.8377V19.7213H23.4387V36.2801C23.4387 36.471 23.5146 36.6542 23.6496 36.7892C23.7846 36.9242 23.9677 37.0001 24.1587 37.0001H34.9579C35.7217 37.0001 36.4542 36.6967 36.9943 36.1566C37.5343 35.6165 37.8377 34.884 37.8377 34.1203V22.6011C38.6015 22.6011 39.334 22.2977 39.8741 21.7576C40.4141 21.2175 40.7175 20.485 40.7175 19.7213V13.9617C40.7175 13.1979 40.4141 12.4654 39.8741 11.9253C39.334 11.3853 38.6015 11.0819 37.8377 11.0819ZM14.1712 8.74203C13.9194 8.51405 13.7175 8.23647 13.5781 7.92673C13.4387 7.617 13.3649 7.28179 13.3612 6.94216C13.3521 6.54421 13.4226 6.14845 13.5684 5.77806C13.7142 5.40767 13.9324 5.07011 14.2103 4.78514C14.4883 4.50018 14.8203 4.27355 15.1869 4.11853C15.5535 3.96351 15.9474 3.88323 16.3454 3.88237H16.4336C16.7733 3.88604 17.1085 3.95988 17.4182 4.09926C17.7279 4.23864 18.0055 4.44055 18.2335 4.69232C19.7436 6.3986 20.2764 9.228 20.4636 10.9775C18.7069 10.7921 15.8793 10.2593 14.1712 8.74203ZM29.8301 8.74203C28.122 10.2539 25.2872 10.7867 23.5305 10.9739C23.7447 9.08221 24.3387 6.3122 25.7786 4.69412C26.0066 4.44235 26.2841 4.24044 26.5939 4.10106C26.9036 3.96168 27.2388 3.88784 27.5785 3.88417H27.6666C28.0647 3.88666 28.4583 3.96858 28.8243 4.12512C29.1903 4.28167 29.5214 4.50969 29.7982 4.79584C30.0749 5.08198 30.2918 5.42048 30.436 5.79151C30.5803 6.16253 30.649 6.55862 30.6382 6.95656C30.6324 7.29389 30.5573 7.62642 30.4177 7.93354C30.278 8.24067 30.0768 8.51585 29.8265 8.74203H29.8301Z" fill="#D658B3"/>
<path d="M12.3614 6.95908C12.3673 7.43445 12.4711 7.90353 12.6662 8.3371C12.8622 8.77254 13.146 9.16277 13.5 9.48328L13.4999 9.48331L13.5071 9.48966C14.512 10.3823 15.7986 10.9488 17.0087 11.3161C18.2289 11.6865 19.4419 11.8752 20.3586 11.972L21.5896 12.1019L21.4579 10.8711C21.3602 9.9586 21.1711 8.74757 20.8016 7.52861C20.4353 6.32 19.8709 5.0336 18.9824 4.02957L18.9824 4.02953L18.9748 4.02108C18.6542 3.66714 18.264 3.38328 17.8286 3.18734C17.3931 2.99139 16.9219 2.88758 16.4444 2.88243V2.88237H16.4336L16.3454 2.88237L16.3433 2.88238C15.8122 2.88351 15.2866 2.99064 14.7974 3.19748C14.3083 3.40432 13.8653 3.70671 13.4944 4.08694C13.1236 4.46716 12.8324 4.91757 12.6379 5.41178C12.444 5.90414 12.3501 6.43011 12.3614 6.95908ZM12.3614 6.95908C12.3614 6.95704 12.3613 6.95499 12.3613 6.95294L13.3612 6.94216M12.3614 6.95908C12.3614 6.96107 12.3615 6.96304 12.3615 6.96502L13.3612 6.94216M13.3612 6.94216C13.3521 6.54421 13.4226 6.14845 13.5684 5.77806C13.7142 5.40767 13.9324 5.07011 14.2103 4.78514C14.4883 4.50018 14.8203 4.27355 15.1869 4.11853C15.5535 3.96351 15.9474 3.88323 16.3454 3.88237H16.4336C16.7733 3.88604 17.1085 3.95988 17.4182 4.09926C17.7279 4.23864 18.0055 4.44055 18.2335 4.69232C19.4755 6.09571 20.0564 8.25887 20.3277 9.95603C20.4099 9.96577 20.4902 9.97474 20.5685 9.983L20.4636 10.9775L19.4692 11.0839C19.4608 11.0056 19.4518 10.9251 19.4419 10.8428C17.7407 10.5726 15.5768 9.99068 14.1712 8.74203C13.9194 8.51405 13.7175 8.23647 13.5781 7.92673C13.4387 7.617 13.3649 7.28179 13.3612 6.94216ZM30.8778 10.3185L28.7938 12.0819H31.5238H37.8377C38.3363 12.0819 38.8144 12.2799 39.167 12.6325C39.5195 12.985 39.7175 13.4631 39.7175 13.9617V19.7213C39.7175 20.2198 39.5195 20.698 39.167 21.0505C38.8144 21.403 38.3363 21.6011 37.8377 21.6011H36.8377V22.6011V34.1203C36.8377 34.6188 36.6397 35.0969 36.2872 35.4495C35.9346 35.802 35.4565 36.0001 34.9579 36.0001H24.4387V20.7213H37.8377H38.8377V19.7213V13.9617V12.9617H37.8377H23.4387H22.4387V13.9617V18.7213H21.5589V13.9617V12.9617H20.5589H6.15995H5.15995V13.9617V19.7213V20.7213H6.15995H19.5589V36.0001H9.03975C8.5412 36.0001 8.06306 35.802 7.71053 35.4495C7.358 35.0969 7.15995 34.6188 7.15995 34.1203V22.6011V21.6011H6.15995C5.6614 21.6011 5.18326 21.403 4.83073 21.0505C4.4782 20.698 4.28015 20.2198 4.28015 19.7213V13.9617C4.28015 13.4631 4.4782 12.985 4.83073 12.6325C5.18326 12.2799 5.6614 12.0819 6.15995 12.0819H12.4739H15.0854L13.1418 10.3376C13.0934 10.2942 12.9945 10.2107 12.9461 10.1698C12.935 10.1604 12.9265 10.1533 12.922 10.1494C12.4807 9.75603 12.125 9.27619 11.8769 8.73961C11.6277 8.2008 11.4924 7.61637 11.4794 7.02287L11.4794 7.02287L11.4792 7.0152C11.4596 6.35168 11.5758 5.69115 11.8207 5.07417C12.0656 4.45719 12.434 3.89677 12.9033 3.42731C13.3726 2.95786 13.9329 2.58928 14.5498 2.3442C15.1668 2.09913 15.8272 1.98273 16.4908 2.00215L16.4908 2.00218L16.4985 2.00234C17.0922 2.01513 17.6769 2.15034 18.216 2.39952C18.753 2.64771 19.2331 3.00364 19.6267 3.44518C20.2288 4.14414 20.7184 4.93258 21.0779 5.78218L21.9988 7.95844L22.9198 5.78218C23.2793 4.93258 23.7689 4.14414 24.371 3.44518C24.7645 3.00364 25.2447 2.64771 25.7817 2.39952C26.3207 2.15034 26.9055 2.01513 27.4992 2.00234L27.4992 2.00237L27.5069 2.00215C28.1704 1.98273 28.8309 2.09913 29.4478 2.3442C30.0648 2.58928 30.6251 2.95786 31.0944 3.42731C31.5637 3.89677 31.9321 4.45719 32.177 5.07417C32.4219 5.69115 32.5381 6.35168 32.5185 7.0152L32.5184 7.0152L32.5183 7.02287C32.513 7.26493 32.4873 7.50547 32.4419 7.74203H31.5381C31.5995 7.49272 31.6332 7.23671 31.638 6.97868C31.6517 6.44939 31.5599 5.92265 31.3681 5.42913C31.1756 4.93408 30.8862 4.48241 30.517 4.10062C30.1477 3.71882 29.7059 3.41457 29.2176 3.20569C28.7292 2.99681 28.204 2.88751 27.6729 2.88419V2.88417H27.6666H27.5785V2.88411L27.5677 2.88423C27.0902 2.88938 26.6189 2.99319 26.1835 3.18914C25.7481 3.38508 25.3578 3.66894 25.0373 4.02288L25.0373 4.02286L25.0315 4.02934C24.1794 4.98693 23.6171 6.23383 23.2409 7.43179C22.8611 8.64103 22.6488 9.87269 22.5369 10.8614L22.3966 12.1004L23.6365 11.9682C24.5525 11.8706 25.7667 11.6815 26.9882 11.3118C28.1993 10.9453 29.4878 10.3805 30.4929 9.49083L32.4363 7.77061C32.37 8.10408 32.2643 8.4294 32.1208 8.73961C31.8716 9.27842 31.514 9.76003 31.0702 10.1543L31.0635 10.1603L31.0569 10.1663C31.0265 10.1944 31.0021 10.2146 30.9634 10.2468C30.941 10.2654 30.9138 10.2881 30.8778 10.3185Z" stroke="white" stroke-width="2"/>
</g>
<defs>
<filter id="filter0_ddddd_4108_6" x="0.280151" y="6.10948e-05" width="43.4374" height="52" filterUnits="userSpaceOnUse" color-interpolation-filters="sRGB">
<feFlood flood-opacity="0" result="BackgroundImageFix"/>
<feColorMatrix in="SourceAlpha" type="matrix" values="0 0 0 0 0 0 0 0 0 0 0 0 0 0 0 0 0 0 127 0" result="hardAlpha"/>
<feOffset/>
<feGaussianBlur stdDeviation="0.5"/>
<feColorMatrix type="matrix" values="0 0 0 0 0 0 0 0 0 0 0 0 0 0 0 0 0 0 0.29 0"/>
<feBlend mode="normal" in2="BackgroundImageFix" result="effect1_dropShadow_4108_6"/>
<feColorMatrix in="SourceAlpha" type="matrix" values="0 0 0 0 0 0 0 0 0 0 0 0 0 0 0 0 0 0 127 0" result="hardAlpha"/>
<feOffset dy="2"/>
<feGaussianBlur stdDeviation="1"/>
<feColorMatrix type="matrix" values="0 0 0 0 0 0 0 0 0 0 0 0 0 0 0 0 0 0 0.26 0"/>
<feBlend mode="normal" in2="effect1_dropShadow_4108_6" result="effect2_dropShadow_4108_6"/>
<feColorMatrix in="SourceAlpha" type="matrix" values="0 0 0 0 0 0 0 0 0 0 0 0 0 0 0 0 0 0 127 0" result="hardAlpha"/>
<feOffset dy="4"/>
<feGaussianBlur stdDeviation="1.5"/>
<feColorMatrix type="matrix" values="0 0 0 0 0 0 0 0 0 0 0 0 0 0 0 0 0 0 0.15 0"/>
<feBlend mode="normal" in2="effect2_dropShadow_4108_6" result="effect3_dropShadow_4108_6"/>
<feColorMatrix in="SourceAlpha" type="matrix" values="0 0 0 0 0 0 0 0 0 0 0 0 0 0 0 0 0 0 127 0" result="hardAlpha"/>
<feOffset dy="8"/>
<feGaussianBlur stdDeviation="1.5"/>
<feColorMatrix type="matrix" values="0 0 0 0 0 0 0 0 0 0 0 0 0 0 0 0 0 0 0.04 0"/>
<feBlend mode="normal" in2="effect3_dropShadow_4108_6" result="effect4_dropShadow_4108_6"/>
<feColorMatrix in="SourceAlpha" type="matrix" values="0 0 0 0 0 0 0 0 0 0 0 0 0 0 0 0 0 0 127 0" result="hardAlpha"/>
<feOffset dy="12"/>
<feGaussianBlur stdDeviation="1.5"/>
<feColorMatrix type="matrix" values="0 0 0 0 0 0 0 0 0 0 0 0 0 0 0 0 0 0 0.01 0"/>
<feBlend mode="normal" in2="effect4_dropShadow_4108_6" result="effect5_dropShadow_4108_6"/>
<feBlend mode="normal" in="SourceGraphic" in2="effect5_dropShadow_4108_6" result="shape"/>
</filter>
</defs>
</svg>
